<?xml version="1.0" encoding="UTF-8"?>
<svg xmlns="http://www.w3.org/2000/svg" width="266.977" height="327.05" viewBox="0 0 266.977 327.05">
  <g id="Group_14079" data-name="Group 14079" transform="translate(7558.009 21617.424)">
    <g id="Group_14078" data-name="Group 14078" transform="translate(-7558.009 -21617.424)">
      <g id="g10">
        <g id="g12">
          <g id="g20">
            <path id="path22" d="M-535.641-345.612a11.964,11.964,0,0,1-12.239-11.68,11.964,11.964,0,0,1,12.239-11.68,11.96,11.96,0,0,1,12.239,11.68A11.964,11.964,0,0,1-535.641-345.612Zm-21.8,85.737a11.221,11.221,0,0,1-5.531,1.293h-99.486s-5.648.075-7.238-2.119.872-6.674.872-6.674L-598.9-394.906s2.365-4.413,1.176-6.386-5.919-1.5-5.919-1.5h-59.99s-2.891.15-3.854-1.543a9.109,9.109,0,0,1,0-5.227l2.04-8.093a9.559,9.559,0,0,1,3.5-6.787,18.843,18.843,0,0,1,9.411-1.669h85.778s6.437-.834,7.926,1.744-1.923,8.493-1.923,8.493L-624.78-295.181s-1.852,4.614-.417,6.866,6.207,2.136,6.207,2.136h38.353a13.173,13.173,0,0,0,6.291-1.564,15.406,15.406,0,0,0,4.588-5.047l19.54-44.589a5.932,5.932,0,0,1,1.811-2.324,7.45,7.45,0,0,1,2.987-1.026h18.355s2.086-.234,2.615.751-.68,3.754-.68,3.754l-29.843,72.133a7.032,7.032,0,0,1-2.436,4.226M-731.984-479.087v273.533h266.975V-479.087Z" transform="translate(731.984 479.087)" fill="#16b296"></path>
          </g>
        </g>
      </g>
      <path id="text40" d="M2.688,2.88h29.4V-1.578H9.074l22.593-31.57v-4.157H2.688v4.458H25.281L2.688-1.277Zm52.6,0h5V-37.305h-5Zm64.285,0h5V-37.305H117.4L104.869-6.7,92.4-37.305H85.23V2.88h5V-30.557L103.845,2.88h2.048L119.57-30.557ZM147.89-17.183c0,11.87,8.01,20.783,19.939,20.783,11.869,0,19.942-8.917,19.942-20.786S179.7-37.968,167.829-37.968c-11.929,0-19.942,8.917-19.942,20.786Zm34.7,0c0,9.339-5.784,16.327-14.761,16.327-9.037,0-14.761-6.989-14.761-16.327,0-9.4,5.724-16.327,14.761-16.327,8.977,0,14.761,6.929,14.761,16.328ZM209.34,2.88h29.4V-1.578H215.727l22.593-31.57v-4.157H209.34v4.458h22.593L209.34-1.277Zm52.6,0h5V-37.305h-5Z" transform="translate(0.037 323.45)" fill="#16b296"></path>
    </g>
  </g>
</svg>
